<mxfile host="Electron" agent="Mozilla/5.0 (Windows NT 10.0; Win64; x64) AppleWebKit/537.36 (KHTML, like Gecko) draw.io/26.0.9 Chrome/128.0.6613.186 Electron/32.2.5 Safari/537.36" version="26.0.9">
  <diagram id="R2lEEEUBdFMjLlhIrx00" name="Page-1">
    <mxGraphModel dx="1290" dy="621" grid="1" gridSize="10" guides="1" tooltips="1" connect="1" arrows="1" fold="1" page="1" pageScale="1" pageWidth="850" pageHeight="1100" math="0" shadow="0" extFonts="Permanent Marker^https://fonts.googleapis.com/css?family=Permanent+Marker">
      <root>
        <mxCell id="0" />
        <mxCell id="1" parent="0" />
        <mxCell id="JEYVQQ84_MfJ3mA2qtfx-1" value="Cliente" style="whiteSpace=wrap;html=1;align=center;" parent="1" vertex="1">
          <mxGeometry x="190" y="200" width="100" height="40" as="geometry" />
        </mxCell>
        <mxCell id="JEYVQQ84_MfJ3mA2qtfx-3" value="Il seguente modello concettuale vuole rappresentare il processo relativo alla gestione degli ordini di un E-commerce" style="text;html=1;align=center;verticalAlign=middle;resizable=0;points=[];autosize=1;strokeColor=none;fillColor=none;" parent="1" vertex="1">
          <mxGeometry x="105" y="20" width="640" height="30" as="geometry" />
        </mxCell>
        <mxCell id="gbzaMJ7oLy3Shl4wPWJI-2" value="Nome" style="ellipse;whiteSpace=wrap;html=1;align=center;" parent="1" vertex="1">
          <mxGeometry x="100" y="260" width="50" height="50" as="geometry" />
        </mxCell>
        <mxCell id="gbzaMJ7oLy3Shl4wPWJI-3" value="" style="endArrow=none;html=1;rounded=0;exitX=0;exitY=0.75;exitDx=0;exitDy=0;entryX=1;entryY=0;entryDx=0;entryDy=0;" parent="1" source="JEYVQQ84_MfJ3mA2qtfx-1" target="gbzaMJ7oLy3Shl4wPWJI-2" edge="1">
          <mxGeometry relative="1" as="geometry">
            <mxPoint x="340" y="320" as="sourcePoint" />
            <mxPoint x="190" y="280" as="targetPoint" />
            <Array as="points">
              <mxPoint x="170" y="230" />
              <mxPoint x="170" y="250" />
              <mxPoint x="170" y="267" />
            </Array>
          </mxGeometry>
        </mxCell>
        <mxCell id="gbzaMJ7oLy3Shl4wPWJI-9" value="Cognome" style="ellipse;whiteSpace=wrap;html=1;align=center;" parent="1" vertex="1">
          <mxGeometry x="185" y="275" width="60" height="50" as="geometry" />
        </mxCell>
        <mxCell id="gbzaMJ7oLy3Shl4wPWJI-10" value="Email" style="ellipse;whiteSpace=wrap;html=1;align=center;" parent="1" vertex="1">
          <mxGeometry x="190" y="110" width="50" height="50" as="geometry" />
        </mxCell>
        <mxCell id="gbzaMJ7oLy3Shl4wPWJI-12" value="" style="endArrow=none;html=1;rounded=0;entryX=0.25;entryY=0;entryDx=0;entryDy=0;exitX=0.5;exitY=1;exitDx=0;exitDy=0;" parent="1" source="gbzaMJ7oLy3Shl4wPWJI-10" target="JEYVQQ84_MfJ3mA2qtfx-1" edge="1">
          <mxGeometry relative="1" as="geometry">
            <mxPoint x="340" y="320" as="sourcePoint" />
            <mxPoint x="500" y="320" as="targetPoint" />
          </mxGeometry>
        </mxCell>
        <mxCell id="gbzaMJ7oLy3Shl4wPWJI-13" value="Indirizzo" style="ellipse;whiteSpace=wrap;html=1;align=center;dashed=1;" parent="1" vertex="1">
          <mxGeometry x="250" y="110" width="50" height="50" as="geometry" />
        </mxCell>
        <mxCell id="gbzaMJ7oLy3Shl4wPWJI-16" value="" style="endArrow=none;html=1;rounded=0;entryX=0;entryY=0.25;entryDx=0;entryDy=0;exitX=1;exitY=0.5;exitDx=0;exitDy=0;" parent="1" source="gbzaMJ7oLy3Shl4wPWJI-40" target="JEYVQQ84_MfJ3mA2qtfx-1" edge="1">
          <mxGeometry relative="1" as="geometry">
            <mxPoint x="130" y="210" as="sourcePoint" />
            <mxPoint x="500" y="320" as="targetPoint" />
          </mxGeometry>
        </mxCell>
        <mxCell id="gbzaMJ7oLy3Shl4wPWJI-17" value="Telefono" style="ellipse;whiteSpace=wrap;html=1;align=center;" parent="1" vertex="1">
          <mxGeometry x="240" y="310" width="50" height="50" as="geometry" />
        </mxCell>
        <mxCell id="gbzaMJ7oLy3Shl4wPWJI-18" value="" style="endArrow=none;html=1;rounded=0;entryX=0.848;entryY=0.04;entryDx=0;entryDy=0;entryPerimeter=0;exitX=0.5;exitY=1;exitDx=0;exitDy=0;" parent="1" source="gbzaMJ7oLy3Shl4wPWJI-13" target="JEYVQQ84_MfJ3mA2qtfx-1" edge="1">
          <mxGeometry relative="1" as="geometry">
            <mxPoint x="275" y="170" as="sourcePoint" />
            <mxPoint x="500" y="320" as="targetPoint" />
          </mxGeometry>
        </mxCell>
        <mxCell id="gbzaMJ7oLy3Shl4wPWJI-28" value="ID_Ordine" style="ellipse;whiteSpace=wrap;html=1;align=center;fontStyle=4;" parent="1" vertex="1">
          <mxGeometry x="530" y="70" width="60" height="60" as="geometry" />
        </mxCell>
        <mxCell id="gbzaMJ7oLy3Shl4wPWJI-30" value="" style="endArrow=none;html=1;rounded=0;entryX=0.104;entryY=0.01;entryDx=0;entryDy=0;exitX=0.5;exitY=1;exitDx=0;exitDy=0;entryPerimeter=0;" parent="1" source="gbzaMJ7oLy3Shl4wPWJI-28" edge="1">
          <mxGeometry relative="1" as="geometry">
            <mxPoint x="340" y="220" as="sourcePoint" />
            <mxPoint x="590.4000000000001" y="200.39999999999998" as="targetPoint" />
            <Array as="points">
              <mxPoint x="560" y="170" />
            </Array>
          </mxGeometry>
        </mxCell>
        <mxCell id="gbzaMJ7oLy3Shl4wPWJI-31" value="Stato" style="ellipse;whiteSpace=wrap;html=1;align=center;" parent="1" vertex="1">
          <mxGeometry x="660" y="70" width="50" height="50" as="geometry" />
        </mxCell>
        <mxCell id="gbzaMJ7oLy3Shl4wPWJI-33" value="" style="endArrow=none;html=1;rounded=0;entryX=0.75;entryY=0;entryDx=0;entryDy=0;exitX=0.5;exitY=1;exitDx=0;exitDy=0;" parent="1" source="gbzaMJ7oLy3Shl4wPWJI-31" edge="1">
          <mxGeometry relative="1" as="geometry">
            <mxPoint x="340" y="120" as="sourcePoint" />
            <mxPoint x="655" y="200" as="targetPoint" />
            <Array as="points">
              <mxPoint x="685" y="160" />
            </Array>
          </mxGeometry>
        </mxCell>
        <mxCell id="gbzaMJ7oLy3Shl4wPWJI-34" value="Relationship" style="shape=rhombus;perimeter=rhombusPerimeter;whiteSpace=wrap;html=1;align=center;" parent="1" vertex="1">
          <mxGeometry x="380" y="180" width="90" height="80" as="geometry" />
        </mxCell>
        <mxCell id="gbzaMJ7oLy3Shl4wPWJI-37" value="" style="edgeStyle=entityRelationEdgeStyle;fontSize=12;html=1;endArrow=ERmandOne;startArrow=ERmandOne;rounded=0;entryX=0;entryY=0.5;entryDx=0;entryDy=0;exitX=1;exitY=0.5;exitDx=0;exitDy=0;" parent="1" source="gbzaMJ7oLy3Shl4wPWJI-34" target="U-22xmGoM2D43kcLgqDj-58" edge="1">
          <mxGeometry width="100" height="100" relative="1" as="geometry">
            <mxPoint x="370" y="170" as="sourcePoint" />
            <mxPoint x="580" y="220" as="targetPoint" />
          </mxGeometry>
        </mxCell>
        <mxCell id="gbzaMJ7oLy3Shl4wPWJI-39" value="Data" style="ellipse;whiteSpace=wrap;html=1;align=center;" parent="1" vertex="1">
          <mxGeometry x="635" y="267.5" width="40" height="35" as="geometry" />
        </mxCell>
        <mxCell id="gbzaMJ7oLy3Shl4wPWJI-40" value="ID_Cliente" style="ellipse;whiteSpace=wrap;html=1;align=center;fontStyle=4;" parent="1" vertex="1">
          <mxGeometry x="90" y="180" width="70" height="60" as="geometry" />
        </mxCell>
        <mxCell id="gbzaMJ7oLy3Shl4wPWJI-43" value="" style="endArrow=none;html=1;rounded=0;exitX=0.75;exitY=1;exitDx=0;exitDy=0;entryX=0.5;entryY=0;entryDx=0;entryDy=0;" parent="1" source="JEYVQQ84_MfJ3mA2qtfx-1" target="gbzaMJ7oLy3Shl4wPWJI-17" edge="1">
          <mxGeometry relative="1" as="geometry">
            <mxPoint x="340" y="220" as="sourcePoint" />
            <mxPoint x="500" y="220" as="targetPoint" />
            <Array as="points">
              <mxPoint x="265" y="275" />
            </Array>
          </mxGeometry>
        </mxCell>
        <mxCell id="gbzaMJ7oLy3Shl4wPWJI-45" value="" style="endArrow=none;html=1;rounded=0;exitX=0.25;exitY=1;exitDx=0;exitDy=0;entryX=0.5;entryY=0;entryDx=0;entryDy=0;" parent="1" source="JEYVQQ84_MfJ3mA2qtfx-1" target="gbzaMJ7oLy3Shl4wPWJI-9" edge="1">
          <mxGeometry relative="1" as="geometry">
            <mxPoint x="340" y="220" as="sourcePoint" />
            <mxPoint x="500" y="220" as="targetPoint" />
          </mxGeometry>
        </mxCell>
        <mxCell id="gbzaMJ7oLy3Shl4wPWJI-46" value="" style="edgeStyle=entityRelationEdgeStyle;fontSize=12;html=1;endArrow=ERoneToMany;rounded=0;exitX=1;exitY=0.5;exitDx=0;exitDy=0;entryX=0;entryY=0.5;entryDx=0;entryDy=0;" parent="1" source="JEYVQQ84_MfJ3mA2qtfx-1" target="gbzaMJ7oLy3Shl4wPWJI-34" edge="1">
          <mxGeometry width="100" height="100" relative="1" as="geometry">
            <mxPoint x="370" y="270" as="sourcePoint" />
            <mxPoint x="470" y="170" as="targetPoint" />
          </mxGeometry>
        </mxCell>
        <mxCell id="gbzaMJ7oLy3Shl4wPWJI-47" value="&lt;span style=&quot;border-bottom: 1px dotted&quot;&gt;ID_Cliente&lt;/span&gt;" style="ellipse;whiteSpace=wrap;html=1;align=center;" parent="1" vertex="1">
          <mxGeometry x="575" y="277.5" width="60" height="60" as="geometry" />
        </mxCell>
        <mxCell id="gbzaMJ7oLy3Shl4wPWJI-63" value="Relationship" style="shape=rhombus;perimeter=rhombusPerimeter;whiteSpace=wrap;html=1;align=center;" parent="1" vertex="1">
          <mxGeometry x="585" y="340" width="95" height="80" as="geometry" />
        </mxCell>
        <mxCell id="gbzaMJ7oLy3Shl4wPWJI-67" value="" style="endArrow=none;html=1;rounded=0;entryX=0.5;entryY=1;entryDx=0;entryDy=0;exitX=0.5;exitY=0;exitDx=0;exitDy=0;" parent="1" target="va3q5Y5Ng9IBCoTlbUxi-27" edge="1">
          <mxGeometry relative="1" as="geometry">
            <mxPoint x="630" y="200" as="sourcePoint" />
            <mxPoint x="630" y="160" as="targetPoint" />
          </mxGeometry>
        </mxCell>
        <mxCell id="gbzaMJ7oLy3Shl4wPWJI-69" value="" style="endArrow=none;html=1;rounded=0;entryX=0.25;entryY=1;entryDx=0;entryDy=0;exitX=0.5;exitY=0;exitDx=0;exitDy=0;" parent="1" source="gbzaMJ7oLy3Shl4wPWJI-47" edge="1">
          <mxGeometry relative="1" as="geometry">
            <mxPoint x="390" y="320" as="sourcePoint" />
            <mxPoint x="605" y="240" as="targetPoint" />
          </mxGeometry>
        </mxCell>
        <mxCell id="gbzaMJ7oLy3Shl4wPWJI-70" value="" style="endArrow=none;html=1;rounded=0;entryX=0.75;entryY=1;entryDx=0;entryDy=0;exitX=0.5;exitY=0;exitDx=0;exitDy=0;" parent="1" source="gbzaMJ7oLy3Shl4wPWJI-39" edge="1">
          <mxGeometry relative="1" as="geometry">
            <mxPoint x="330" y="340" as="sourcePoint" />
            <mxPoint x="655" y="240" as="targetPoint" />
          </mxGeometry>
        </mxCell>
        <mxCell id="sFSfUqZxRoyFaj4GNVIT-7" value="" style="edgeStyle=entityRelationEdgeStyle;fontSize=12;html=1;endArrow=ERoneToMany;rounded=0;entryX=1;entryY=0.5;entryDx=0;entryDy=0;exitX=1;exitY=0.5;exitDx=0;exitDy=0;" parent="1" target="gbzaMJ7oLy3Shl4wPWJI-63" edge="1">
          <mxGeometry width="100" height="100" relative="1" as="geometry">
            <mxPoint x="680" y="220" as="sourcePoint" />
            <mxPoint x="460" y="420" as="targetPoint" />
          </mxGeometry>
        </mxCell>
        <mxCell id="sFSfUqZxRoyFaj4GNVIT-9" value="Dettaglio ordine" style="shape=ext;margin=3;double=1;whiteSpace=wrap;html=1;align=center;" parent="1" vertex="1">
          <mxGeometry x="430" y="520" width="140" height="70" as="geometry" />
        </mxCell>
        <mxCell id="U-22xmGoM2D43kcLgqDj-1" value="" style="edgeStyle=entityRelationEdgeStyle;fontSize=12;html=1;endArrow=ERmandOne;startArrow=ERmandOne;rounded=0;entryX=0.5;entryY=1;entryDx=0;entryDy=0;exitX=1;exitY=0.5;exitDx=0;exitDy=0;" parent="1" source="sFSfUqZxRoyFaj4GNVIT-9" target="gbzaMJ7oLy3Shl4wPWJI-63" edge="1">
          <mxGeometry width="100" height="100" relative="1" as="geometry">
            <mxPoint x="383" y="510" as="sourcePoint" />
            <mxPoint x="425.5" y="380" as="targetPoint" />
          </mxGeometry>
        </mxCell>
        <mxCell id="U-22xmGoM2D43kcLgqDj-11" value="" style="endArrow=none;html=1;rounded=0;exitX=0.5;exitY=1;exitDx=0;exitDy=0;entryX=0.25;entryY=0;entryDx=0;entryDy=0;" parent="1" source="va3q5Y5Ng9IBCoTlbUxi-30" target="sFSfUqZxRoyFaj4GNVIT-9" edge="1">
          <mxGeometry relative="1" as="geometry">
            <mxPoint x="465" y="480" as="sourcePoint" />
            <mxPoint x="500" y="520" as="targetPoint" />
          </mxGeometry>
        </mxCell>
        <mxCell id="U-22xmGoM2D43kcLgqDj-13" value="" style="endArrow=none;html=1;rounded=0;entryX=0.5;entryY=1;entryDx=0;entryDy=0;exitX=0.75;exitY=0;exitDx=0;exitDy=0;" parent="1" source="sFSfUqZxRoyFaj4GNVIT-9" target="va3q5Y5Ng9IBCoTlbUxi-32" edge="1">
          <mxGeometry relative="1" as="geometry">
            <mxPoint x="340" y="520" as="sourcePoint" />
            <mxPoint x="535" y="460" as="targetPoint" />
          </mxGeometry>
        </mxCell>
        <mxCell id="U-22xmGoM2D43kcLgqDj-14" value="" style="endArrow=none;html=1;rounded=0;entryX=0.25;entryY=1;entryDx=0;entryDy=0;exitX=0.5;exitY=0;exitDx=0;exitDy=0;" parent="1" source="U-22xmGoM2D43kcLgqDj-15" target="sFSfUqZxRoyFaj4GNVIT-9" edge="1">
          <mxGeometry relative="1" as="geometry">
            <mxPoint x="465" y="630" as="sourcePoint" />
            <mxPoint x="500" y="520" as="targetPoint" />
            <Array as="points">
              <mxPoint x="465" y="620" />
            </Array>
          </mxGeometry>
        </mxCell>
        <mxCell id="U-22xmGoM2D43kcLgqDj-15" value="Quantità" style="ellipse;whiteSpace=wrap;html=1;align=center;" parent="1" vertex="1">
          <mxGeometry x="380" y="620" width="70" height="60" as="geometry" />
        </mxCell>
        <mxCell id="U-22xmGoM2D43kcLgqDj-16" value="Prezzo unitario" style="ellipse;whiteSpace=wrap;html=1;align=center;" parent="1" vertex="1">
          <mxGeometry x="560" y="620" width="80" height="80" as="geometry" />
        </mxCell>
        <mxCell id="U-22xmGoM2D43kcLgqDj-17" value="" style="endArrow=none;html=1;rounded=0;entryX=0.75;entryY=1;entryDx=0;entryDy=0;exitX=0.5;exitY=0;exitDx=0;exitDy=0;" parent="1" source="U-22xmGoM2D43kcLgqDj-16" target="sFSfUqZxRoyFaj4GNVIT-9" edge="1">
          <mxGeometry relative="1" as="geometry">
            <mxPoint x="340" y="520" as="sourcePoint" />
            <mxPoint x="500" y="520" as="targetPoint" />
            <Array as="points">
              <mxPoint x="535" y="620" />
            </Array>
          </mxGeometry>
        </mxCell>
        <mxCell id="U-22xmGoM2D43kcLgqDj-19" value="Relationship" style="shape=rhombus;perimeter=rhombusPerimeter;whiteSpace=wrap;html=1;align=center;" parent="1" vertex="1">
          <mxGeometry x="260" y="515" width="100" height="80" as="geometry" />
        </mxCell>
        <mxCell id="U-22xmGoM2D43kcLgqDj-22" value="ID_Prodotto" style="ellipse;whiteSpace=wrap;html=1;align=center;fontStyle=4;" parent="1" vertex="1">
          <mxGeometry x="47.5" y="420" width="80" height="70" as="geometry" />
        </mxCell>
        <mxCell id="U-22xmGoM2D43kcLgqDj-23" value="" style="endArrow=none;html=1;rounded=0;exitX=0.5;exitY=1;exitDx=0;exitDy=0;entryX=0.25;entryY=0;entryDx=0;entryDy=0;" parent="1" source="U-22xmGoM2D43kcLgqDj-22" target="U-22xmGoM2D43kcLgqDj-54" edge="1">
          <mxGeometry relative="1" as="geometry">
            <mxPoint x="340" y="520" as="sourcePoint" />
            <mxPoint x="87.5" y="520" as="targetPoint" />
          </mxGeometry>
        </mxCell>
        <mxCell id="U-22xmGoM2D43kcLgqDj-43" value="" style="endArrow=none;html=1;rounded=0;entryX=0.5;entryY=0;entryDx=0;entryDy=0;exitX=0.75;exitY=1;exitDx=0;exitDy=0;" parent="1" source="U-22xmGoM2D43kcLgqDj-54" target="U-22xmGoM2D43kcLgqDj-45" edge="1">
          <mxGeometry relative="1" as="geometry">
            <mxPoint x="163" y="590" as="sourcePoint" />
            <mxPoint x="166" y="650" as="targetPoint" />
          </mxGeometry>
        </mxCell>
        <mxCell id="U-22xmGoM2D43kcLgqDj-45" value="Descrizione" style="ellipse;whiteSpace=wrap;html=1;align=center;" parent="1" vertex="1">
          <mxGeometry x="127.5" y="630" width="70" height="60" as="geometry" />
        </mxCell>
        <mxCell id="U-22xmGoM2D43kcLgqDj-47" value="" style="endArrow=none;html=1;rounded=0;exitX=0.5;exitY=1;exitDx=0;exitDy=0;entryX=0.75;entryY=0;entryDx=0;entryDy=0;" parent="1" source="va3q5Y5Ng9IBCoTlbUxi-26" target="U-22xmGoM2D43kcLgqDj-54" edge="1">
          <mxGeometry relative="1" as="geometry">
            <mxPoint x="162.5" y="467.5" as="sourcePoint" />
            <mxPoint x="162.5" y="520" as="targetPoint" />
          </mxGeometry>
        </mxCell>
        <mxCell id="U-22xmGoM2D43kcLgqDj-48" value="" style="endArrow=none;html=1;rounded=0;exitX=0.25;exitY=1;exitDx=0;exitDy=0;" parent="1" source="U-22xmGoM2D43kcLgqDj-54" target="U-22xmGoM2D43kcLgqDj-49" edge="1">
          <mxGeometry relative="1" as="geometry">
            <mxPoint x="87.5" y="590" as="sourcePoint" />
            <mxPoint x="88" y="720" as="targetPoint" />
          </mxGeometry>
        </mxCell>
        <mxCell id="U-22xmGoM2D43kcLgqDj-49" value="Prezzo" style="ellipse;whiteSpace=wrap;html=1;align=center;" parent="1" vertex="1">
          <mxGeometry x="62.5" y="710" width="50" height="50" as="geometry" />
        </mxCell>
        <mxCell id="U-22xmGoM2D43kcLgqDj-50" value="" style="endArrow=none;html=1;rounded=0;exitX=0;exitY=0.5;exitDx=0;exitDy=0;entryX=0.5;entryY=0;entryDx=0;entryDy=0;" parent="1" source="U-22xmGoM2D43kcLgqDj-54" target="U-22xmGoM2D43kcLgqDj-52" edge="1">
          <mxGeometry relative="1" as="geometry">
            <mxPoint x="50" y="555" as="sourcePoint" />
            <mxPoint x="20" y="640" as="targetPoint" />
            <Array as="points">
              <mxPoint x="20" y="555" />
            </Array>
          </mxGeometry>
        </mxCell>
        <mxCell id="U-22xmGoM2D43kcLgqDj-52" value="Nome" style="ellipse;whiteSpace=wrap;html=1;align=center;" parent="1" vertex="1">
          <mxGeometry y="640" width="40" height="40" as="geometry" />
        </mxCell>
        <mxCell id="U-22xmGoM2D43kcLgqDj-54" value="Prodotto" style="shape=ext;margin=3;double=1;whiteSpace=wrap;html=1;align=center;" parent="1" vertex="1">
          <mxGeometry x="50" y="520" width="150" height="70" as="geometry" />
        </mxCell>
        <mxCell id="U-22xmGoM2D43kcLgqDj-55" value="" style="edgeStyle=entityRelationEdgeStyle;fontSize=12;html=1;endArrow=ERmandOne;startArrow=ERmandOne;rounded=0;exitX=1;exitY=0.5;exitDx=0;exitDy=0;entryX=0;entryY=0.5;entryDx=0;entryDy=0;" parent="1" source="U-22xmGoM2D43kcLgqDj-19" target="sFSfUqZxRoyFaj4GNVIT-9" edge="1">
          <mxGeometry width="100" height="100" relative="1" as="geometry">
            <mxPoint x="370" y="510" as="sourcePoint" />
            <mxPoint x="470" y="410" as="targetPoint" />
          </mxGeometry>
        </mxCell>
        <mxCell id="U-22xmGoM2D43kcLgqDj-57" value="" style="edgeStyle=entityRelationEdgeStyle;fontSize=12;html=1;endArrow=ERzeroToMany;endFill=1;rounded=0;entryX=1;entryY=0.5;entryDx=0;entryDy=0;exitX=0;exitY=0.5;exitDx=0;exitDy=0;" parent="1" source="U-22xmGoM2D43kcLgqDj-19" target="U-22xmGoM2D43kcLgqDj-54" edge="1">
          <mxGeometry width="100" height="100" relative="1" as="geometry">
            <mxPoint x="230" y="485" as="sourcePoint" />
            <mxPoint x="330" y="385" as="targetPoint" />
          </mxGeometry>
        </mxCell>
        <mxCell id="U-22xmGoM2D43kcLgqDj-58" value="Ordine" style="whiteSpace=wrap;html=1;align=center;" parent="1" vertex="1">
          <mxGeometry x="585" y="200" width="100" height="40" as="geometry" />
        </mxCell>
        <mxCell id="va3q5Y5Ng9IBCoTlbUxi-1" value="Pagamento" style="whiteSpace=wrap;html=1;align=center;" vertex="1" parent="1">
          <mxGeometry x="430" y="840" width="150" height="80" as="geometry" />
        </mxCell>
        <mxCell id="va3q5Y5Ng9IBCoTlbUxi-5" value="ID_Pagamento" style="ellipse;whiteSpace=wrap;html=1;align=center;fontStyle=4;" vertex="1" parent="1">
          <mxGeometry x="330" y="680" width="90" height="90" as="geometry" />
        </mxCell>
        <mxCell id="va3q5Y5Ng9IBCoTlbUxi-7" value="Relationship" style="shape=rhombus;perimeter=rhombusPerimeter;whiteSpace=wrap;html=1;align=center;" vertex="1" parent="1">
          <mxGeometry x="450" y="650" width="100" height="60" as="geometry" />
        </mxCell>
        <mxCell id="va3q5Y5Ng9IBCoTlbUxi-9" value="" style="edgeStyle=entityRelationEdgeStyle;fontSize=12;html=1;endArrow=ERmandOne;startArrow=ERmandOne;rounded=0;exitX=0.5;exitY=0;exitDx=0;exitDy=0;" edge="1" parent="1" source="va3q5Y5Ng9IBCoTlbUxi-7">
          <mxGeometry width="100" height="100" relative="1" as="geometry">
            <mxPoint x="720" y="880" as="sourcePoint" />
            <mxPoint x="500" y="590" as="targetPoint" />
            <Array as="points">
              <mxPoint x="720" y="840" />
            </Array>
          </mxGeometry>
        </mxCell>
        <mxCell id="va3q5Y5Ng9IBCoTlbUxi-12" value="" style="edgeStyle=entityRelationEdgeStyle;fontSize=12;html=1;endArrow=ERmandOne;startArrow=ERmandOne;rounded=0;exitX=0.5;exitY=0;exitDx=0;exitDy=0;entryX=0.5;entryY=1;entryDx=0;entryDy=0;" edge="1" parent="1" source="va3q5Y5Ng9IBCoTlbUxi-1" target="va3q5Y5Ng9IBCoTlbUxi-7">
          <mxGeometry width="100" height="100" relative="1" as="geometry">
            <mxPoint x="370" y="680" as="sourcePoint" />
            <mxPoint x="630" y="790" as="targetPoint" />
          </mxGeometry>
        </mxCell>
        <mxCell id="va3q5Y5Ng9IBCoTlbUxi-16" value="" style="endArrow=none;html=1;rounded=0;exitX=0.5;exitY=1;exitDx=0;exitDy=0;entryX=0.25;entryY=0;entryDx=0;entryDy=0;" edge="1" parent="1" source="va3q5Y5Ng9IBCoTlbUxi-5" target="va3q5Y5Ng9IBCoTlbUxi-1">
          <mxGeometry relative="1" as="geometry">
            <mxPoint x="340" y="700" as="sourcePoint" />
            <mxPoint x="500" y="700" as="targetPoint" />
            <Array as="points">
              <mxPoint x="468" y="770" />
            </Array>
          </mxGeometry>
        </mxCell>
        <mxCell id="va3q5Y5Ng9IBCoTlbUxi-17" value="ID_Ordine" style="ellipse;whiteSpace=wrap;html=1;align=center;fontStyle=4;" vertex="1" parent="1">
          <mxGeometry x="570" y="730" width="70" height="70" as="geometry" />
        </mxCell>
        <mxCell id="va3q5Y5Ng9IBCoTlbUxi-18" value="" style="endArrow=none;html=1;rounded=0;entryX=0.75;entryY=0;entryDx=0;entryDy=0;exitX=0.5;exitY=1;exitDx=0;exitDy=0;" edge="1" parent="1" source="va3q5Y5Ng9IBCoTlbUxi-17" target="va3q5Y5Ng9IBCoTlbUxi-1">
          <mxGeometry relative="1" as="geometry">
            <mxPoint x="340" y="700" as="sourcePoint" />
            <mxPoint x="500" y="700" as="targetPoint" />
            <Array as="points">
              <mxPoint x="543" y="800" />
            </Array>
          </mxGeometry>
        </mxCell>
        <mxCell id="va3q5Y5Ng9IBCoTlbUxi-19" value="Metodo" style="ellipse;whiteSpace=wrap;html=1;align=center;" vertex="1" parent="1">
          <mxGeometry x="300" y="847.5" width="70" height="65" as="geometry" />
        </mxCell>
        <mxCell id="va3q5Y5Ng9IBCoTlbUxi-20" value="" style="endArrow=none;html=1;rounded=0;exitX=1;exitY=0.5;exitDx=0;exitDy=0;entryX=0;entryY=0.5;entryDx=0;entryDy=0;" edge="1" parent="1" source="va3q5Y5Ng9IBCoTlbUxi-19" target="va3q5Y5Ng9IBCoTlbUxi-1">
          <mxGeometry relative="1" as="geometry">
            <mxPoint x="340" y="700" as="sourcePoint" />
            <mxPoint x="500" y="700" as="targetPoint" />
          </mxGeometry>
        </mxCell>
        <mxCell id="va3q5Y5Ng9IBCoTlbUxi-21" value="" style="endArrow=none;html=1;rounded=0;entryX=0.5;entryY=1;entryDx=0;entryDy=0;exitX=0.5;exitY=0;exitDx=0;exitDy=0;" edge="1" parent="1" source="va3q5Y5Ng9IBCoTlbUxi-22" target="va3q5Y5Ng9IBCoTlbUxi-1">
          <mxGeometry relative="1" as="geometry">
            <mxPoint x="505" y="960" as="sourcePoint" />
            <mxPoint x="500" y="700" as="targetPoint" />
          </mxGeometry>
        </mxCell>
        <mxCell id="va3q5Y5Ng9IBCoTlbUxi-22" value="Importo" style="ellipse;whiteSpace=wrap;html=1;align=center;" vertex="1" parent="1">
          <mxGeometry x="467.5" y="960" width="75" height="70" as="geometry" />
        </mxCell>
        <mxCell id="va3q5Y5Ng9IBCoTlbUxi-23" value="Data" style="ellipse;whiteSpace=wrap;html=1;align=center;" vertex="1" parent="1">
          <mxGeometry x="640" y="845" width="65" height="70" as="geometry" />
        </mxCell>
        <mxCell id="va3q5Y5Ng9IBCoTlbUxi-24" value="" style="endArrow=none;html=1;rounded=0;entryX=0;entryY=0.5;entryDx=0;entryDy=0;exitX=1;exitY=0.5;exitDx=0;exitDy=0;" edge="1" parent="1" source="va3q5Y5Ng9IBCoTlbUxi-1" target="va3q5Y5Ng9IBCoTlbUxi-23">
          <mxGeometry relative="1" as="geometry">
            <mxPoint x="340" y="800" as="sourcePoint" />
            <mxPoint x="500" y="800" as="targetPoint" />
          </mxGeometry>
        </mxCell>
        <mxCell id="va3q5Y5Ng9IBCoTlbUxi-26" value="Stock" style="ellipse;shape=doubleEllipse;margin=3;whiteSpace=wrap;html=1;align=center;" vertex="1" parent="1">
          <mxGeometry x="135" y="415" width="55" height="60" as="geometry" />
        </mxCell>
        <mxCell id="va3q5Y5Ng9IBCoTlbUxi-27" value="Totale" style="ellipse;whiteSpace=wrap;html=1;align=center;" vertex="1" parent="1">
          <mxGeometry x="600" y="100" width="60" height="60" as="geometry" />
        </mxCell>
        <mxCell id="va3q5Y5Ng9IBCoTlbUxi-30" value="&lt;span style=&quot;border-bottom: 1px dotted&quot;&gt;ID_Ordine&lt;/span&gt;" style="ellipse;whiteSpace=wrap;html=1;align=center;" vertex="1" parent="1">
          <mxGeometry x="430" y="415" width="70" height="70" as="geometry" />
        </mxCell>
        <mxCell id="va3q5Y5Ng9IBCoTlbUxi-32" value="&lt;span style=&quot;border-bottom: 1px dotted&quot;&gt;ID_Prodotto&lt;/span&gt;" style="ellipse;whiteSpace=wrap;html=1;align=center;" vertex="1" parent="1">
          <mxGeometry x="500" y="390" width="70" height="70" as="geometry" />
        </mxCell>
      </root>
    </mxGraphModel>
  </diagram>
</mxfile>
